<svg xmlns="http://www.w3.org/2000/svg" enable-background="new 0 0 48 48" viewBox="0 0 48 48" width="256" height="256"><path d="M27.8 4.9c8.7 1.7 15 9.2 15.5 18.1.1 1.1.9 1.9 2 1.9 0 0 .1 0 .1 0 1.1-.1 1.9-1 1.9-2.1C46.7 12 39 3.1 28.6 1 19.7-.8 10.8 2.7 5.5 9.8L5.2 7.8C5.1 6.7 4 6 2.9 6.1 1.9 6.3 1.1 7.3 1.3 8.4l1 6.9c.1.5.4 1 .8 1.3C3.4 16.9 3.8 17 4.3 17c.1 0 .2 0 .3 0l6.9-1c1.1-.2 1.8-1.2 1.7-2.3-.2-1.1-1.2-1.8-2.3-1.7l-2.3.3C12.9 6.4 20.4 3.4 27.8 4.9zM19.5 47c1.5.3 3 .4 4.5.4 7.3 0 14.2-3.5 18.6-9.2l.2 1.6c.1 1 1 1.7 2 1.7.1 0 .2 0 .3 0 1.1-.2 1.8-1.2 1.7-2.3l-1-6.9c-.1-.5-.4-1-.8-1.3-.2-.2-.5-.3-.8-.3-.5-.1-.9-.1-1.4.1l-6.2.9c-1.1.2-1.8 1.2-1.7 2.3.2 1.1 1.2 1.8 2.3 1.7l2.6-.4c-4.3 6.1-12 9.4-19.5 7.9-8.9-1.8-15.4-9.7-15.6-18.7 0-1.1-.9-2-2-2 0 0 0 0 0 0-1.1 0-2 .9-2 2C.9 35.4 8.8 44.9 19.5 47z" fill="#000000" class="color000 svgShape"></path></svg>