<?xml version="1.0" standalone="no"?>
<!DOCTYPE svg PUBLIC "-//W3C//DTD SVG 20010904//EN"
 "http://www.w3.org/TR/2001/REC-SVG-20010904/DTD/svg10.dtd">
<svg version="1.0" xmlns="http://www.w3.org/2000/svg"
 width="30.000000pt" height="30.000000pt" viewBox="0 0 500.000000 500.000000">

<g transform="translate(0.000000,500.000000) scale(0.100000,-0.100000)"
fill="#ffffff" stroke="none">
<path d="M2345 4181 c-714 -71 -1306 -579 -1479 -1269 -38 -149 -49 -244 -49
-407 0 -172 13 -275 53 -430 162 -618 642 -1076 1280 -1223 106 -24 133 -26
340 -27 196 0 240 3 337 23 715 145 1255 727 1344 1449 18 145 6 437 -24 563
-76 323 -212 576 -437 814 -228 242 -570 425 -906 485 -127 23 -343 33 -459
22z m489 -155 c334 -77 606 -238 839 -496 89 -99 166 -217 237 -365 99 -206
138 -368 147 -610 6 -182 -4 -281 -46 -449 -69 -273 -214 -519 -426 -724 -217
-211 -450 -337 -751 -408 -111 -27 -133 -28 -334 -28 -201 0 -223 1 -335 28
-277 65 -499 179 -700 358 -251 224 -413 498 -491 833 -27 112 -29 134 -28
335 0 200 2 223 28 335 36 156 65 235 137 375 154 301 397 541 698 690 127 62
212 93 351 123 156 35 160 35 370 33 160 -3 201 -7 304 -30z"/>
<path d="M2242 3563 c-19 -9 -44 -32 -58 -52 -24 -35 -24 -39 -24 -253 0 -119
4 -227 9 -240 6 -16 28 -31 67 -47 91 -37 93 -41 32 -90 -47 -38 -94 -92 -139
-161 l-16 -24 -19 54 c-17 51 -24 187 -12 254 2 16 -8 23 -55 37 -73 22 -72
24 -72 -141 0 -118 2 -130 34 -213 19 -48 31 -90 28 -93 -3 -4 -29 -1 -57 6
-45 11 -57 20 -94 67 -40 53 -42 54 -81 47 -22 -4 -96 -10 -165 -13 l-125 -6
-6 -70 c-4 -38 -5 -89 -2 -113 5 -39 8 -43 27 -38 106 31 253 31 358 0 70 -21
153 -64 208 -108 l45 -35 11 68 c34 203 135 363 287 456 l66 40 3 75 3 75 144
3 c162 3 212 -8 273 -58 42 -35 88 -121 88 -164 0 -121 -95 -216 -216 -217
-55 -1 -56 -1 -49 -28 18 -65 24 -111 25 -185 l0 -78 28 5 c42 8 117 -12 160
-43 52 -38 92 -117 92 -184 -1 -93 -62 -186 -154 -234 -48 -24 -62 -26 -208
-30 -140 -4 -158 -2 -158 12 0 12 -13 8 -55 -19 -59 -38 -192 -95 -222 -95
-44 -1 -46 -9 -41 -171 5 -167 13 -198 64 -238 111 -87 263 -3 264 145 l0 42
138 6 c210 9 281 20 364 59 200 93 325 253 360 457 27 159 -40 332 -162 423
l-41 29 46 49 c88 94 131 240 107 362 -33 165 -156 320 -313 395 -121 57 -159
64 -366 63 l-183 -1 -1 22 c0 13 -2 38 -5 56 -15 116 -132 184 -232 135z"/>
<path d="M1500 2741 c0 -11 4 -22 9 -25 4 -3 6 6 3 19 -5 30 -12 33 -12 6z"/>
<path d="M2384 2658 c-130 -139 -169 -296 -124 -513 24 -114 30 -209 17 -259
-8 -27 -7 -28 20 -21 53 13 138 69 204 134 72 72 118 156 139 252 16 70 10
240 -9 263 -14 16 -36 23 -27 7 3 -4 -6 -13 -19 -19 -23 -11 -24 -10 -13 8 15
23 5 36 -34 45 -19 5 -28 3 -28 -5 0 -10 -3 -10 -15 0 -20 16 -37 3 -29 -23 8
-27 1 -21 -16 13 -7 14 -9 22 -5 18 9 -9 35 9 35 24 0 5 -6 6 -12 2 -9 -6 -9
-3 0 9 20 23 6 54 -30 66 -26 9 -29 13 -18 26 26 31 3 13 -36 -27z m175 -144
c-6 -8 -19 -14 -28 -13 -10 0 -8 3 7 10 14 5 20 13 16 20 -4 8 -3 9 5 5 9 -6
9 -11 0 -22z m-111 -9 c-3 -3 -9 2 -12 12 -6 14 -5 15 5 6 7 -7 10 -15 7 -18z
m-9 -114 c11 -7 6 -25 -29 -95 -47 -96 -70 -110 -70 -43 0 46 19 90 53 124 25
25 27 26 46 14z"/>
<path d="M1556 2368 l-48 -11 6 -40 c11 -64 63 -180 117 -256 103 -147 278
-241 447 -241 l60 0 18 47 c11 28 18 73 18 112 0 160 -139 325 -322 381 -71
22 -209 26 -296 8z m468 -267 c10 -15 -61 -69 -105 -81 -47 -13 -111 -10 -116
6 -2 6 38 27 89 47 97 38 123 43 132 28z"/>
</g>
</svg>
